<svg width="46" height="46" viewBox="0 0 46 46" fill="none" xmlns="http://www.w3.org/2000/svg">
<path d="M39.6294 9.6676L26.0944 1.84986C25.1247 1.29302 24.0261 1 22.908 1C21.7898 1 20.6912 1.29302 19.7216 1.84986L14.9601 4.60088C16.1451 4.98868 17.2428 5.6046 18.1912 6.41394L21.3149 4.60988C21.7994 4.33057 22.3488 4.18354 22.908 4.18354C23.4672 4.18354 24.0166 4.33057 24.5011 4.60988L29.1639 7.30256L22.706 13.1501L24.3396 15.973L32.063 8.9765L38.0363 12.4276C38.5202 12.7069 38.9221 13.1085 39.2017 13.5921C39.4813 14.0758 39.6288 14.6245 39.6294 15.1831V21.2057L29.4422 24.8184L31.0623 27.6233L39.6294 24.585V30.8186C39.6285 31.3755 39.4818 31.9225 39.2039 32.4051C38.926 32.8878 38.5265 33.2892 38.0453 33.5696C38.0407 33.5696 38.0407 33.5741 38.0363 33.5741C38.0363 33.5741 35.3033 35.1538 35.2764 35.1672C34.5497 35.5566 33.7002 35.6483 32.9072 35.4231C32.1142 35.1978 31.4398 34.6732 31.0263 33.96L17.4777 10.4889C16.6306 9.03203 15.2415 7.96945 13.6138 7.53308C11.986 7.09671 10.2517 7.32198 8.78942 8.15971L6.19536 9.65865L6.18199 9.66761C5.216 10.2289 4.41392 11.0334 3.85564 12.0011C3.29735 12.9688 3.00234 14.0659 3 15.1831V30.8186C3.00233 31.9358 3.29734 33.0329 3.85562 34.0006C4.41391 34.9683 5.216 35.7728 6.18199 36.3341L19.7216 44.1518C20.6916 44.7076 21.7901 45 22.908 45C24.0259 45 25.1244 44.7076 26.0944 44.1518L30.8066 41.4277C29.6207 41.0418 28.5226 40.4257 27.5753 39.6147L24.5011 41.3918C24.0162 41.6697 23.4669 41.8159 22.908 41.8159C22.3491 41.8159 21.7999 41.6697 21.3149 41.3918L10.257 35.0057L21.9073 30.8724L20.2872 28.0675L8.35404 32.304C8.19861 32.3582 8.02923 32.3569 7.87463 32.3004C7.72002 32.244 7.58968 32.1358 7.5057 31.9943C7.42173 31.8527 7.38928 31.6865 7.41385 31.5237C7.43843 31.361 7.51851 31.2117 7.64054 31.1013L17.0919 22.5386L15.4628 19.7158L6.18201 28.1214V15.1831C6.18259 14.6245 6.33008 14.0758 6.6097 13.5921C6.88932 13.1085 7.29122 12.7069 7.77507 12.4276L7.78867 12.4186C7.78867 12.4186 10.4228 10.8973 10.4408 10.8883C11.1684 10.4892 12.0232 10.3907 12.8225 10.6138C13.6218 10.8369 14.302 11.3639 14.7178 12.082L28.271 35.5532C29.1185 37.0084 30.5071 38.0694 32.1338 38.5049C33.7605 38.9404 35.4935 38.715 36.9547 37.8779L39.6294 36.3341C39.634 36.3341 39.634 36.3296 39.6384 36.3296C40.6033 35.7686 41.4044 34.9646 41.9618 33.9977C42.5193 33.0308 42.8137 31.9347 42.8158 30.8186V15.1831C42.8135 14.0654 42.5181 12.9678 41.9589 12C41.3998 11.0321 40.5965 10.2279 39.6294 9.6676Z" fill="#7B3FE4"/>
</svg>
